PathFileType  4	(X/Y/Z) C:\Users\antoi\Documents\MyRepositories\mobilecap\ResultsAnalysis
DataRate	CameraRate	NumFrames	NumMarkers	Units	OrigDataRate	OrigDataStartFrame	OrigNumFrames
100.0	100.0	7	51	mm	100.0	136	270
Frame#	Time	r_knee			r_shank_antsup			r_ankle			r_calc			r_5meta			r_toe			L_knee			L_shank_antsup			L_ankle			L_calc			L_5meta			L_toe			r_sh2			r_sh3			r_sh4			L_sh2			L_sh3			r_thigh1			r_thigh2			r_thigh3			r_thigh4			r_thigh5			L_thigh1			L_thigh2			L_thigh3			L_thigh4			r.ASIS			r.PSIS			L.ASIS			L.PSIS			C7			R_Shoulder			L_Shoulder			R_Sternum			L_Sternum			R_humerus			R_elbow_med			R_elbow_lat			R_forearm			R_wrist_radius			R_wrist_ulna			L_humerus			L_elbow_med			L_elbow_lat			L_forearm			L_wrist_radius			L_wrist_ulna			R_HJC			L_HJC			R_HJC_reg			L_HJC_reg			
		X1	Y1	Z1	X2	Y2	Z2	X3	Y3	Z3	X4	Y4	Z4	X5	Y5	Z5	X6	Y6	Z6	X7	Y7	Z7	X8	Y8	Z8	X9	Y9	Z9	X10	Y10	Z10	X11	Y11	Z11	X12	Y12	Z12	X13	Y13	Z13	X14	Y14	Z14	X15	Y15	Z15	X16	Y16	Z16	X17	Y17	Z17	X18	Y18	Z18	X19	Y19	Z19	X20	Y20	Z20	X21	Y21	Z21	X22	Y22	Z22	X23	Y23	Z23	X24	Y24	Z24	X25	Y25	Z25	X26	Y26	Z26	X27	Y27	Z27	X28	Y28	Z28	X29	Y29	Z29	X30	Y30	Z30	X31	Y31	Z31	X32	Y32	Z32	X33	Y33	Z33	X34	Y34	Z34	X35	Y35	Z35	X36	Y36	Z36	X37	Y37	Z37	X38	Y38	Z38	X39	Y39	Z39	X40	Y40	Z40	X41	Y41	Z41	X42	Y42	Z42	X43	Y43	Z43	X44	Y44	Z44	X45	Y45	Z45	X46	Y46	Z46	X47	Y47	Z47	X48	Y48	Z48	X49	Y49	Z49	X50	Y50	Z50	X51	Y51	Z51	

136	1.35000000	-226.72321	548.17226	-380.67145	-206.02055	465.59663	-365.47333	-314.05596	118.26202	-398.89800	-382.93672	81.56389	-451.45341	-189.28290	33.31303	-374.89827	-153.18277	59.68052	-434.57474	-245.32565	548.74890	-743.39986	-223.20146	429.62966	-763.61989	-324.18696	114.77304	-731.94469	-395.55676	75.45951	-680.37992	-188.38498	30.41816	-770.99889	-158.65403	55.64475	-707.63594	-225.47605	353.37406	-362.25906	-280.17390	478.06778	-348.88978	-306.23001	365.17729	-351.94627	-310.68849	452.52358	-768.39108	-326.93190	332.53655	-764.96365	-302.29250	867.61597	-355.10642	-245.27772	773.54198	-361.06338	-278.74459	722.14451	-335.58240	-397.41189	803.94875	-357.68105	-330.22071	707.75840	-351.78206	-323.21572	870.72711	-745.18044	-253.90539	751.25400	-756.25649	-423.79772	808.70956	-731.88798	-347.44100	693.29913	-750.45081	-335.23313	1036.12955	-422.79532	-532.21278	1063.72890	-486.95246	-355.95050	1030.10055	-681.74899	-539.89495	1060.54536	-591.02627	-514.33426	1582.22392	-566.06316	-490.05562	1569.60765	-419.77428	-461.44991	1550.42541	-697.81482	-370.05041	1499.65537	-518.41454	-372.91038	1491.22830	-579.88147	-576.69503	1465.16949	-199.50178	-557.98971	1332.97112	-146.69978	-589.57347	1417.36123	-118.89090	-464.75683	1489.16327	-174.06624	-370.47184	1525.35918	-235.46506	-375.42889	1528.73667	-195.75997	-524.52649	1422.54608	-905.53219	-546.05771	1287.25824	-937.08544	-543.94337	1362.33280	-977.23759	-384.11011	1403.06419	-946.15445	-300.32837	1424.01324	-896.17392	-290.17978	1418.54118	-934.23606	-414.21327	952.79292	-422.37617	-429.54996	947.67674	-652.17464	-407.68714	956.89015	-452.00429	-420.30903	951.65496	-622.96213	
137	1.36000000	-210.14643	533.83806	-382.80121	-190.46006	449.39608	-370.27674	-316.97800	109.01805	-404.66072	-387.89686	65.61808	-458.49918	-190.04553	34.62745	-376.75622	-153.06240	58.30450	-436.95545	-226.31048	534.73148	-743.16758	-206.95925	416.14657	-761.79835	-324.00667	108.85392	-726.34346	-397.79923	65.91419	-675.43858	-188.67696	31.05743	-769.86433	-157.40667	54.91318	-705.92066	-214.10491	338.26803	-366.98626	-263.41628	464.91604	-350.54760	-294.31684	352.89595	-354.36917	-293.41032	441.93127	-767.66598	-314.58225	322.75706	-762.38436	-290.36816	850.26444	-354.98767	-231.89015	757.46060	-362.04523	-263.58102	705.25271	-335.49252	-384.26574	784.72405	-355.19702	-315.17618	689.52797	-350.51272	-311.82484	854.09655	-744.30421	-238.17849	736.96649	-754.02487	-410.29858	788.37974	-732.83525	-329.82904	676.06251	-752.06695	-327.29096	1011.83185	-421.59117	-525.69510	1040.59331	-487.35620	-348.01487	1003.55845	-679.82039	-533.62122	1036.97878	-589.72311	-504.64833	1561.96881	-567.27504	-482.09220	1547.17436	-416.58999	-453.28110	1528.12415	-702.22253	-360.98612	1477.34631	-520.06525	-364.20308	1468.82533	-580.80087	-567.65287	1428.22102	-201.04671	-545.89319	1296.29044	-154.83062	-580.67070	1378.43868	-124.74796	-458.35722	1455.12635	-176.72395	-364.83139	1496.09014	-236.65928	-369.00071	1498.06969	-195.51285	-518.14436	1385.56922	-903.90104	-539.64706	1252.41107	-927.92570	-539.57177	1325.57791	-971.61914	-378.39787	1366.08987	-944.33918	-293.42467	1388.19385	-896.33214	-284.25057	1381.85997	-934.78055	-408.13649	929.34422	-420.43575	-423.03256	922.22696	-650.20940	-400.33211	932.70253	-450.02572	-413.53350	926.67445	-620.47555	
138	1.37000000	-201.06608	519.86698	-386.16132	-179.78655	434.17765	-374.88670	-318.47401	102.53938	-410.97680	-389.98556	57.10624	-463.73493	-190.82772	36.24190	-378.54873	-153.14354	57.64537	-438.84118	-210.54273	523.87353	-742.15674	-192.69173	407.37365	-760.17016	-322.69399	106.49098	-722.01675	-397.78871	62.82714	-672.45514	-189.04206	31.99002	-768.92898	-156.84410	54.48489	-704.83983	-206.35437	324.58405	-372.75468	-252.16127	451.94993	-355.84081	-286.41704	341.07727	-361.17893	-278.11512	435.48182	-765.03726	-303.44775	317.53181	-758.81764	-280.95684	834.01072	-355.17980	-221.83865	741.90078	-363.53361	-252.62142	689.12198	-337.32694	-374.20244	767.62416	-354.20454	-304.05007	673.10590	-351.79178	-302.79128	840.13456	-743.47248	-225.35384	725.26185	-751.80108	-399.12727	771.42294	-731.82182	-315.26368	661.88563	-751.09542	-321.22211	990.31797	-420.27562	-519.75087	1023.79779	-486.32819	-341.29989	980.43397	-677.62334	-527.82773	1019.62778	-588.44664	-494.39216	1544.82522	-568.33962	-473.28911	1527.22199	-413.11590	-446.32865	1508.48619	-707.18097	-352.25350	1457.05486	-522.21600	-355.46931	1448.86873	-581.76935	-557.42362	1392.76924	-203.74073	-533.24343	1261.25182	-165.02527	-570.87041	1340.72104	-132.14359	-450.27777	1421.93482	-179.46050	-357.22867	1467.58097	-236.72232	-359.65991	1466.62330	-192.95663	-511.12319	1351.47844	-900.86043	-532.19945	1219.35927	-917.46352	-534.23327	1290.93305	-964.62393	-371.06299	1329.93511	-942.24066	-284.75079	1352.67020	-896.80949	-276.69705	1344.80588	-935.17442	-404.70139	910.05895	-418.15730	-419.24174	901.44024	-647.90558	-396.04507	913.06760	-447.96871	-409.48049	906.13948	-617.78590	
139	1.38000000	-191.08973	507.58644	-391.36713	-170.49995	422.36796	-378.75952	-319.55559	100.29495	-415.21990	-390.75281	55.03116	-465.29745	-191.46951	37.28594	-379.37426	-153.35316	57.78513	-439.62799	-192.71748	516.81765	-740.50538	-180.33305	401.63101	-758.92798	-322.93357	107.12240	-720.28522	-397.69034	62.66384	-671.62125	-189.26673	32.39647	-768.67032	-157.08824	54.43094	-704.84184	-202.05895	314.31131	-379.51388	-242.68359	443.42220	-363.29667	-281.59007	334.30019	-369.19120	-264.15551	434.21744	-761.73116	-295.21342	317.78231	-755.91705	-273.55371	819.80078	-355.37536	-212.60850	728.95942	-366.17390	-242.62535	675.41893	-341.26489	-365.58743	751.96025	-355.95149	-293.50959	658.80101	-356.10253	-295.79698	827.94394	-742.68253	-214.33914	716.07564	-750.45018	-389.60284	756.00350	-728.51118	-301.91161	649.53966	-747.90658	-317.44752	973.51084	-419.24563	-514.96368	1011.41803	-484.27195	-336.18387	963.49130	-675.54020	-522.78902	1006.61147	-587.73790	-483.92585	1530.16184	-569.23634	-462.09682	1509.45752	-409.88895	-439.29897	1490.98463	-711.87799	-343.44062	1439.88177	-524.33476	-346.63127	1432.06620	-582.67744	-546.60611	1360.88207	-208.67617	-520.79700	1228.54189	-177.57242	-560.61916	1305.27223	-140.88315	-440.69235	1390.20520	-182.13206	-347.64131	1440.31195	-235.65294	-348.81657	1435.45186	-190.37621	-504.29571	1322.82837	-896.06013	-523.92050	1189.20341	-906.14244	-527.77363	1259.86784	-956.35693	-362.17418	1295.33076	-939.65090	-274.49493	1317.54059	-897.23251	-267.70527	1307.77534	-935.49005	-402.39404	895.11178	-416.38068	-416.40230	886.20476	-646.14993	-393.81650	898.84841	-446.56284	-406.61299	890.99977	-615.63191	
140	1.39000000	-174.89400	501.72589	-398.78025	-159.04014	418.42983	-383.57635	-318.25024	101.80309	-416.10236	-390.32401	56.33241	-464.85442	-191.39986	37.47482	-379.62085	-153.08478	57.72159	-439.98876	-174.29730	513.37062	-738.39064	-168.81918	397.85590	-756.90100	-322.26052	109.15313	-720.79874	-397.30082	64.42254	-672.44652	-189.16746	32.18448	-768.85694	-157.52502	54.47917	-705.48782	-194.68089	311.40766	-383.56901	-230.95378	442.44467	-370.79158	-273.50261	334.60204	-374.67058	-250.81127	435.10045	-759.59193	-287.31986	320.11965	-754.87213	-267.39731	809.19873	-356.64926	-203.05225	720.83600	-370.93666	-231.30054	666.16445	-346.66430	-357.10975	738.52337	-359.15625	-281.64378	647.75414	-361.55841	-290.50315	817.51730	-741.17860	-204.75507	708.98429	-748.64272	-381.54389	742.09841	-724.99051	-289.67660	639.10696	-744.60816	-315.46143	961.26907	-418.32996	-511.62342	1000.30193	-482.85370	-332.78409	952.15512	-673.80567	-519.06123	994.91563	-587.16660	-473.60292	1517.39571	-570.04826	-449.10779	1493.79850	-407.04023	-430.96682	1475.68537	-715.35891	-334.38484	1426.06183	-526.00277	-337.60883	1418.37057	-583.86400	-535.74479	1333.13574	-215.27458	-509.18066	1198.70932	-191.98907	-550.21422	1273.01511	-150.44691	-429.48273	1360.28133	-184.15111	-335.99754	1414.02700	-233.53690	-337.03654	1405.19410	-188.76837	-498.53554	1299.41163	-890.37357	-515.91239	1163.76268	-894.46807	-520.34477	1232.79704	-947.42830	-352.04261	1262.70338	-936.72383	-262.96834	1282.85448	-897.39503	-257.50036	1271.27620	-935.86959	-400.00029	883.17285	-415.35925	-413.19835	874.82789	-645.19641	-391.94120	888.40508	-445.48926	-403.95036	879.70008	-613.94702	
141	1.40000000	-155.95243	502.56477	-407.05547	-145.26655	420.56886	-390.50061	-315.87564	104.16834	-415.55211	-389.71127	57.56645	-464.62405	-191.03018	37.46164	-379.87352	-152.63743	57.48232	-440.34143	-159.76103	511.57681	-736.03699	-157.75206	395.38630	-754.11386	-319.86448	110.93745	-721.80387	-396.67622	67.08334	-673.71036	-188.93769	31.91221	-769.15089	-157.72593	54.53473	-706.07736	-183.75291	314.45397	-385.60595	-216.22609	446.98422	-376.70277	-261.37503	340.22872	-376.41948	-238.28851	435.49387	-758.99249	-278.78416	321.71494	-755.25188	-261.83855	801.86225	-359.59324	-194.29843	716.53777	-376.98491	-219.59300	660.61096	-352.08725	-348.81471	727.93030	-361.43187	-269.74711	640.06856	-365.73854	-286.37616	808.97212	-739.11587	-197.00207	703.28313	-746.01427	-375.07997	730.68114	-722.81447	-279.67019	630.87510	-742.13854	-314.21232	951.60251	-417.08785	-509.38098	989.60118	-482.40082	-330.57668	943.09748	-672.43842	-516.46399	983.92456	-586.49085	-463.44312	1506.32069	-570.71765	-435.94903	1480.42868	-404.46097	-421.22945	1462.82800	-717.28499	-325.13547	1414.32238	-527.33841	-328.17059	1406.65779	-585.68128	-525.00489	1309.04676	-222.19169	-499.23261	1172.95898	-207.38454	-539.86022	1244.82996	-160.25813	-416.71502	1332.26171	-185.63540	-322.09619	1388.12276	-230.89156	-323.49780	1375.75019	-187.15434	-493.19754	1279.63181	-884.56881	-508.95149	1144.21834	-882.93039	-512.55762	1209.77105	-939.05145	-341.08398	1232.23709	-933.92179	-250.56232	1248.84531	-897.49835	-246.51202	1235.70467	-936.08065	-397.77191	872.95327	-414.54191	-410.06772	864.98980	-644.44444	-390.03688	879.09409	-444.30412	-401.48788	869.91176	-612.63510	
142	1.41000000	-141.71164	503.76267	-414.25235	-132.41452	422.22183	-398.52421	-314.75773	105.34351	-415.84200	-389.62015	57.65416	-464.92196	-191.00705	37.61326	-380.23017	-152.53862	57.37640	-440.73499	-150.06381	509.36147	-733.80635	-148.24148	393.08748	-751.46639	-317.56229	112.09387	-722.47143	-396.13100	69.14969	-674.37284	-188.81062	31.82426	-769.26745	-157.62398	54.60606	-706.19687	-174.02573	316.97818	-390.01615	-201.76583	450.76467	-380.75161	-249.91890	345.58196	-376.93481	-227.65118	435.10275	-758.60732	-271.22594	322.41809	-755.65081	-257.13768	795.98732	-363.03456	-187.79851	713.05690	-382.43561	-210.11563	656.21986	-356.25530	-341.86265	719.54000	-361.86492	-260.29869	634.21816	-368.27430	-283.31310	802.01471	-737.32751	-191.35153	698.48574	-743.53022	-370.27561	721.68119	-721.54062	-272.26393	624.22972	-740.03473	-313.09227	942.99763	-415.40779	-507.57238	980.30090	-482.29893	-328.76954	933.99253	-671.30476	-514.26676	974.71737	-585.95219	-453.30946	1496.98109	-571.01018	-423.58273	1469.32930	-402.54319	-410.80641	1452.24105	-718.01251	-315.72736	1403.51704	-528.42236	-318.46133	1396.02159	-587.63370	-514.26721	1288.58131	-228.59647	-491.78003	1152.54424	-222.97582	-529.75602	1221.30984	-169.63925	-402.72984	1306.27150	-187.37553	-306.05262	1362.32643	-228.55839	-307.89945	1346.85605	-185.48593	-486.22844	1263.10289	-879.26853	-502.35429	1130.10528	-871.88339	-504.94658	1191.13164	-931.84437	-329.94583	1203.84076	-931.66996	-237.95537	1215.72965	-897.88762	-235.55065	1201.12174	-936.13895	-396.40781	864.12987	-413.44704	-407.77345	855.77087	-643.38238	-388.56950	869.77503	-443.00801	-399.46613	860.69020	-611.72459	
